<mxfile host="Electron" agent="Mozilla/5.0 (X11; Linux x86_64) AppleWebKit/537.36 (KHTML, like Gecko) draw.io/28.2.5 Chrome/138.0.7204.251 Electron/37.5.1 Safari/537.36" version="28.2.5">
  <diagram name="SecondBrain Use Case Diagram" id="0">
    <mxGraphModel dx="922" dy="682" grid="1" gridSize="10" guides="1" tooltips="1" connect="1" arrows="1" fold="1" page="1" pageScale="1" pageWidth="1169" pageHeight="827" math="0" shadow="0">
      <root>
        <mxCell id="0" />
        <mxCell id="1" parent="0" />
        <mxCell id="system" value="SecondBrain System" style="swimlane;startSize=30;fontStyle=1;fontSize=14;" parent="1" vertex="1">
          <mxGeometry x="250" y="80" width="650" height="620" as="geometry" />
        </mxCell>
        <mxCell id="uc1" value="UploadDocuments" style="ellipse;whiteSpace=wrap;html=1;" parent="system" vertex="1">
          <mxGeometry x="10" y="180" width="140" height="60" as="geometry" />
        </mxCell>
        <mxCell id="uc2" value="Process Content" style="ellipse;whiteSpace=wrap;html=1;" parent="system" vertex="1">
          <mxGeometry x="470" y="90" width="140" height="60" as="geometry" />
        </mxCell>
        <mxCell id="uc3" value="AskQuestions" style="ellipse;whiteSpace=wrap;html=1;" parent="system" vertex="1">
          <mxGeometry x="150" y="260" width="140" height="60" as="geometry" />
        </mxCell>
        <mxCell id="uc5" value="GenerateQuiz" style="ellipse;whiteSpace=wrap;html=1;" parent="system" vertex="1">
          <mxGeometry x="460" y="420" width="140" height="60" as="geometry" />
        </mxCell>
        <mxCell id="uc8" value="UpdateKnowledgeBase" style="ellipse;whiteSpace=wrap;html=1;" parent="system" vertex="1">
          <mxGeometry x="430" y="190" width="140" height="60" as="geometry" />
        </mxCell>
        <mxCell id="uc9" value="ManageUserAccount" style="ellipse;whiteSpace=wrap;html=1;" parent="system" vertex="1">
          <mxGeometry x="270" y="460" width="140" height="60" as="geometry" />
        </mxCell>
        <mxCell id="uc10" value="CalculateQuizScore" style="ellipse;whiteSpace=wrap;html=1;" parent="system" vertex="1">
          <mxGeometry x="450" y="530" width="140" height="60" as="geometry" />
        </mxCell>
        <mxCell id="include1" value="&amp;lt;&amp;lt;include&amp;gt;&amp;gt;" style="edgeStyle=none;html=1;endArrow=open;dashed=1;dashPattern=5 5;exitX=0.553;exitY=0.053;exitDx=0;exitDy=0;exitPerimeter=0;" parent="system" source="uc8" target="uc2" edge="1">
          <mxGeometry x="0.0029" relative="1" as="geometry">
            <mxPoint as="offset" />
          </mxGeometry>
        </mxCell>
        <mxCell id="KusZDjID37JGzmPBZ6ea-2" value="requestQuiz" style="ellipse;whiteSpace=wrap;html=1;" vertex="1" parent="system">
          <mxGeometry x="210" y="370" width="140" height="60" as="geometry" />
        </mxCell>
        <mxCell id="KusZDjID37JGzmPBZ6ea-4" value="UploadPDF" style="ellipse;whiteSpace=wrap;html=1;" vertex="1" parent="system">
          <mxGeometry x="30" y="40" width="140" height="60" as="geometry" />
        </mxCell>
        <mxCell id="KusZDjID37JGzmPBZ6ea-5" value="UploadTXT" style="ellipse;whiteSpace=wrap;html=1;" vertex="1" parent="system">
          <mxGeometry x="190" y="60" width="140" height="60" as="geometry" />
        </mxCell>
        <mxCell id="KusZDjID37JGzmPBZ6ea-6" value="UploadMD" style="ellipse;whiteSpace=wrap;html=1;" vertex="1" parent="system">
          <mxGeometry x="250" y="130" width="140" height="60" as="geometry" />
        </mxCell>
        <mxCell id="KusZDjID37JGzmPBZ6ea-7" style="endArrow=block;endFill=0;exitX=0.5;exitY=1;exitDx=0;exitDy=0;" edge="1" parent="system" source="KusZDjID37JGzmPBZ6ea-4" target="uc1">
          <mxGeometry relative="1" as="geometry">
            <mxPoint x="60" y="307" as="sourcePoint" />
            <mxPoint x="253" y="280" as="targetPoint" />
          </mxGeometry>
        </mxCell>
        <mxCell id="KusZDjID37JGzmPBZ6ea-8" style="endArrow=block;endFill=0;exitX=0;exitY=1;exitDx=0;exitDy=0;entryX=0.667;entryY=0.041;entryDx=0;entryDy=0;entryPerimeter=0;" edge="1" parent="system" source="KusZDjID37JGzmPBZ6ea-5" target="uc1">
          <mxGeometry relative="1" as="geometry">
            <mxPoint x="110" y="110" as="sourcePoint" />
            <mxPoint x="135" y="161" as="targetPoint" />
          </mxGeometry>
        </mxCell>
        <mxCell id="KusZDjID37JGzmPBZ6ea-9" style="endArrow=block;endFill=0;exitX=0.007;exitY=0.62;exitDx=0;exitDy=0;entryX=1;entryY=0.5;entryDx=0;entryDy=0;exitPerimeter=0;" edge="1" parent="system" source="KusZDjID37JGzmPBZ6ea-6" target="uc1">
          <mxGeometry relative="1" as="geometry">
            <mxPoint x="278" y="180" as="sourcePoint" />
            <mxPoint x="230" y="221" as="targetPoint" />
          </mxGeometry>
        </mxCell>
        <mxCell id="KusZDjID37JGzmPBZ6ea-10" value="Authenticate" style="ellipse;whiteSpace=wrap;html=1;" vertex="1" parent="system">
          <mxGeometry x="10" y="520" width="140" height="60" as="geometry" />
        </mxCell>
        <mxCell id="KusZDjID37JGzmPBZ6ea-13" value="&amp;lt;&amp;lt;include&amp;gt;&amp;gt;" style="edgeStyle=none;html=1;endArrow=open;dashed=1;dashPattern=5 5;exitX=0;exitY=1;exitDx=0;exitDy=0;" edge="1" parent="system" source="uc9" target="KusZDjID37JGzmPBZ6ea-10">
          <mxGeometry x="0.0143" relative="1" as="geometry">
            <mxPoint x="226" y="540" as="sourcePoint" />
            <mxPoint x="270" y="594" as="targetPoint" />
            <mxPoint as="offset" />
          </mxGeometry>
        </mxCell>
        <mxCell id="KusZDjID37JGzmPBZ6ea-14" value="&amp;lt;&amp;lt;include&amp;gt;&amp;gt;" style="edgeStyle=none;html=1;endArrow=open;dashed=1;dashPattern=5 5;exitX=0.229;exitY=0.911;exitDx=0;exitDy=0;exitPerimeter=0;entryX=0.605;entryY=0.049;entryDx=0;entryDy=0;entryPerimeter=0;" edge="1" parent="system" source="KusZDjID37JGzmPBZ6ea-2" target="KusZDjID37JGzmPBZ6ea-10">
          <mxGeometry x="0.0143" relative="1" as="geometry">
            <mxPoint x="247" y="540" as="sourcePoint" />
            <mxPoint x="200" y="566" as="targetPoint" />
            <mxPoint as="offset" />
          </mxGeometry>
        </mxCell>
        <mxCell id="KusZDjID37JGzmPBZ6ea-15" value="&amp;lt;&amp;lt;include&amp;gt;&amp;gt;" style="edgeStyle=none;html=1;endArrow=open;dashed=1;dashPattern=5 5;exitX=0.345;exitY=0.957;exitDx=0;exitDy=0;exitPerimeter=0;entryX=0.43;entryY=-0.006;entryDx=0;entryDy=0;entryPerimeter=0;" edge="1" parent="system" source="uc3" target="KusZDjID37JGzmPBZ6ea-10">
          <mxGeometry x="0.0143" relative="1" as="geometry">
            <mxPoint x="107" y="330" as="sourcePoint" />
            <mxPoint x="80" y="438" as="targetPoint" />
            <mxPoint as="offset" />
          </mxGeometry>
        </mxCell>
        <mxCell id="KusZDjID37JGzmPBZ6ea-36" value="&amp;lt;&amp;lt;include&amp;gt;&amp;gt;" style="edgeStyle=none;html=1;endArrow=open;dashed=1;dashPattern=5 5;exitX=0.377;exitY=0.961;exitDx=0;exitDy=0;exitPerimeter=0;entryX=0.278;entryY=0.053;entryDx=0;entryDy=0;entryPerimeter=0;" edge="1" parent="system" source="uc1" target="KusZDjID37JGzmPBZ6ea-10">
          <mxGeometry x="0.0143" relative="1" as="geometry">
            <mxPoint x="288" y="360" as="sourcePoint" />
            <mxPoint x="160" y="563" as="targetPoint" />
            <mxPoint as="offset" />
          </mxGeometry>
        </mxCell>
        <mxCell id="KusZDjID37JGzmPBZ6ea-37" value="answerQuestions" style="ellipse;whiteSpace=wrap;html=1;" vertex="1" parent="system">
          <mxGeometry x="480" y="310" width="140" height="60" as="geometry" />
        </mxCell>
        <mxCell id="KusZDjID37JGzmPBZ6ea-39" value="EditNote" style="ellipse;whiteSpace=wrap;html=1;" vertex="1" parent="system">
          <mxGeometry x="310" y="240" width="140" height="60" as="geometry" />
        </mxCell>
        <mxCell id="KusZDjID37JGzmPBZ6ea-41" value="&amp;lt;&amp;lt;extend&amp;gt;&amp;gt;" style="edgeStyle=none;html=1;endArrow=open;dashed=1;dashPattern=5 5;exitX=0.786;exitY=0.913;exitDx=0;exitDy=0;exitPerimeter=0;entryX=0.198;entryY=0.044;entryDx=0;entryDy=0;entryPerimeter=0;" edge="1" parent="system" source="KusZDjID37JGzmPBZ6ea-39" target="KusZDjID37JGzmPBZ6ea-37">
          <mxGeometry x="0.0029" relative="1" as="geometry">
            <mxPoint x="500" y="324" as="sourcePoint" />
            <mxPoint x="520" y="280" as="targetPoint" />
            <mxPoint as="offset" />
          </mxGeometry>
        </mxCell>
        <mxCell id="user" value="User" style="shape=umlActor;verticalLabelPosition=bottom;verticalAlign=top;html=1;" parent="1" vertex="1">
          <mxGeometry x="120" y="330" width="60" height="120" as="geometry" />
        </mxCell>
        <mxCell id="aimodel" value="AI Model" style="shape=umlActor;verticalLabelPosition=bottom;verticalAlign=top;html=1;" parent="1" vertex="1">
          <mxGeometry x="990" y="330" width="60" height="120" as="geometry" />
        </mxCell>
        <mxCell id="assoc1" style="endArrow=none;endFill=0;" parent="1" source="user" target="uc1" edge="1">
          <mxGeometry relative="1" as="geometry" />
        </mxCell>
        <mxCell id="assoc2" style="endArrow=none;endFill=0;" parent="1" source="user" target="uc3" edge="1">
          <mxGeometry relative="1" as="geometry" />
        </mxCell>
        <mxCell id="assoc8" style="endArrow=none;endFill=0;" parent="1" source="user" target="uc9" edge="1">
          <mxGeometry relative="1" as="geometry" />
        </mxCell>
        <mxCell id="assoc9" style="entryX=1;entryY=0.5;entryDx=0;entryDy=0;endArrow=none;endFill=0;" parent="1" source="aimodel" target="uc8" edge="1">
          <mxGeometry relative="1" as="geometry" />
        </mxCell>
        <mxCell id="assoc12" style="endArrow=none;endFill=0;" parent="1" source="aimodel" target="uc5" edge="1">
          <mxGeometry relative="1" as="geometry" />
        </mxCell>
        <mxCell id="include3" value="&amp;lt;&amp;lt;include&amp;gt;&amp;gt;" style="edgeStyle=none;html=1;endArrow=open;dashed=1;dashPattern=5 5;" parent="1" source="uc5" target="uc10" edge="1">
          <mxGeometry x="0.0143" relative="1" as="geometry">
            <mxPoint as="offset" />
          </mxGeometry>
        </mxCell>
        <mxCell id="KusZDjID37JGzmPBZ6ea-3" style="endArrow=none;endFill=0;entryX=0;entryY=0.5;entryDx=0;entryDy=0;" edge="1" parent="1" source="user" target="KusZDjID37JGzmPBZ6ea-2">
          <mxGeometry relative="1" as="geometry">
            <mxPoint x="310" y="520" as="sourcePoint" />
            <mxPoint x="471" y="674" as="targetPoint" />
          </mxGeometry>
        </mxCell>
        <mxCell id="KusZDjID37JGzmPBZ6ea-11" style="endArrow=none;endFill=0;entryX=0.357;entryY=0;entryDx=0;entryDy=0;entryPerimeter=0;" edge="1" parent="1" source="user" target="KusZDjID37JGzmPBZ6ea-10">
          <mxGeometry relative="1" as="geometry">
            <mxPoint x="320" y="470" as="sourcePoint" />
            <mxPoint x="614" y="612" as="targetPoint" />
          </mxGeometry>
        </mxCell>
        <mxCell id="KusZDjID37JGzmPBZ6ea-38" style="entryX=0.976;entryY=0.356;entryDx=0;entryDy=0;endArrow=none;endFill=0;entryPerimeter=0;" edge="1" parent="1" source="aimodel" target="KusZDjID37JGzmPBZ6ea-37">
          <mxGeometry relative="1" as="geometry">
            <mxPoint x="1100" y="427" as="sourcePoint" />
            <mxPoint x="930" y="350" as="targetPoint" />
          </mxGeometry>
        </mxCell>
      </root>
    </mxGraphModel>
  </diagram>
</mxfile>
